<svg width="41" height="40" viewBox="0 0 41 40" fill="none" xmlns="http://www.w3.org/2000/svg">
<rect x="0.166992" width="40" height="40" rx="20" fill="#1275B1"/>
<path d="M15.3364 10.9896C15.3364 12.3247 14.1792 13.407 12.7517 13.407C11.3242 13.407 10.167 12.3247 10.167 10.9896C10.167 9.65455 11.3242 8.57227 12.7517 8.57227C14.1792 8.57227 15.3364 9.65455 15.3364 10.9896Z" fill="white"/>
<path d="M10.5205 15.1838H14.9387V28.5723H10.5205V15.1838Z" fill="white"/>
<path d="M22.0521 15.1838H17.6339V28.5723H22.0521C22.0521 28.5723 22.0521 24.3574 22.0521 21.7221C22.0521 20.1403 22.5922 18.5516 24.7473 18.5516C27.1827 18.5516 27.1681 20.6216 27.1567 22.2253C27.1419 24.3215 27.1773 26.4606 27.1773 28.5723H31.5956V21.5062C31.5581 16.9942 30.3824 14.9152 26.5146 14.9152C24.2176 14.9152 22.7937 15.9581 22.0521 16.9015V15.1838Z" fill="white"/>
</svg>
