<svg width="195" height="56" viewBox="0 0 195 56" fill="none" xmlns="http://www.w3.org/2000/svg">
<g clip-path="url(#clip0_518_580)">
<path fill-rule="evenodd" clip-rule="evenodd" d="M117.752 20.3394C121.262 17.0207 124.754 13.6825 128.288 10.3883C130.48 8.34444 132.759 6.39671 135.424 4.96809C137.028 4.10709 138.709 3.56716 140.523 4.14115C142.035 4.61871 142.121 5.0813 140.967 6.1914C132.942 13.9127 124.819 21.522 115.859 28.1783C115.568 28.3948 115.311 28.6599 115.038 28.9045C112.599 30.2774 110.416 32.1244 107.635 32.8613C104.546 33.6796 102.396 31.8861 102.708 28.6921C102.874 26.9833 103.361 25.3422 103.842 23.698C104.081 22.8834 104.585 22.0789 104.298 20.814C103.592 21.5988 103.074 22.1883 102.542 22.7647C100.091 25.417 97.5989 28.0337 94.7312 30.2439C93.3331 31.3203 91.8431 32.5841 89.9274 31.491C87.9917 30.3864 88.2389 28.4169 88.3022 26.577C88.3258 26.3337 88.3647 26.092 88.4184 25.8535C88.8904 22.9514 89.7718 20.154 90.627 17.3517C91.3518 14.978 92.0609 12.601 92.7769 10.2251C92.6073 10.1054 92.4354 9.98587 92.2656 9.86597C90.6825 11.5458 89.1156 13.2417 87.5126 14.9023C85.8157 16.6588 84.2551 18.5784 82.1884 19.9315C79.2803 21.8348 76.6484 20.4468 76.4658 16.9674C76.348 14.7151 77.1394 12.6395 77.7047 10.5186C78.0347 9.27974 78.631 8.09556 78.6351 6.73618C74.9698 9.3505 71.3274 11.8128 68.2484 14.9775C64.9678 18.0795 61.6991 21.1939 58.4014 24.2779C55.9926 26.5306 53.5377 28.7308 50.605 30.3083C49.0068 31.1695 47.3254 31.6987 45.5154 31.1406C44.0129 30.6774 43.9167 30.1816 45.0568 29.0866C53.0249 21.4301 61.0797 13.8695 69.9643 7.25579C70.3529 6.96697 70.6943 6.61547 71.0577 6.29299C73.4302 5.06624 75.4792 3.24892 78.1177 2.50063C81.5266 1.53441 83.708 3.34283 83.2982 6.83232C83.0613 8.84727 82.4119 10.7569 81.8535 12.6915C81.7185 13.1627 81.4551 13.6342 81.7449 14.3086C84.8914 11.0814 87.7337 7.78844 91.1758 5.13034C92.6182 4.0158 94.1393 2.65794 96.1163 3.79946C98.109 4.9508 97.7839 7.00862 97.7129 8.90055C97.7043 9.14105 97.6162 9.37882 97.5752 9.61941C97.0985 12.4568 96.2384 15.1914 95.4042 17.9355C94.6828 20.3094 93.9666 22.6847 93.2557 25.0615C93.4143 25.1696 93.5723 25.2777 93.7298 25.3858C95.4493 23.5865 97.1576 21.7762 98.8911 19.9899C100.379 18.4563 101.766 16.8079 103.519 15.559C104.742 14.6884 106.124 13.9989 107.613 14.7666C109.127 15.5475 109.54 17.0267 109.574 18.6418C109.604 20.0049 109.255 21.2942 108.936 22.6025C108.454 24.5771 107.588 26.4573 107.34 28.6235C111.006 25.9247 114.675 23.5037 117.752 20.3394Z" fill="white"/>
<path d="M4.60436 49.0675L12.6201 52.5775C13.6656 53.0256 13.7903 53.5735 13.7903 54.1457C13.7903 54.9424 13.2176 55.4905 12.421 55.4905C12.0723 55.4905 11.6745 55.4407 11.052 55.1418L0.919815 50.4866C0.645663 50.3643 0.412804 50.1653 0.249395 49.9134C0.0859854 49.6616 -0.000976562 49.3679 -0.000976562 49.0677C-0.000976562 48.7675 0.0859854 48.4737 0.249395 48.2219C0.412804 47.9701 0.645663 47.771 0.919815 47.6488L11.052 42.9933C11.6745 42.6949 12.0723 42.6445 12.421 42.6445C13.2176 42.6445 13.7903 43.1923 13.7903 43.9889C13.7903 44.5617 13.6656 45.1091 12.6201 45.5573L4.60436 49.0675Z" fill="white"/>
<path d="M32.7855 48.4575C32.7855 46.8397 32.2378 46.2669 31.0927 46.2669C30.2215 46.2669 29.3748 47.1632 29.3748 48.6071V53.3619C29.3748 55.1043 28.3042 55.901 26.8108 55.901C25.317 55.901 24.2464 55.1043 24.2464 53.3619V48.4575C24.2464 46.8397 23.6992 46.2669 22.5536 46.2669C21.6823 46.2669 20.8362 47.1632 20.8362 48.6071V53.3619C20.8362 55.1043 19.7658 55.901 18.2721 55.901C16.7784 55.901 15.708 55.1043 15.708 53.3619V44.6736C15.708 43.0806 16.4795 42.2344 18.1726 42.2344C19.6912 42.2344 20.2884 43.1054 20.4626 44.6486H20.5129C21.359 43.1054 22.7781 42.2344 24.7446 42.2344C26.4125 42.2344 28.1551 42.9806 28.6031 44.7483C29.6986 42.9312 31.1177 42.2344 32.9349 42.2344C36.4698 42.2344 37.9137 44.4247 37.9137 47.2626V53.3619C37.9137 55.1043 36.8433 55.901 35.3497 55.901C33.8562 55.901 32.7855 55.1043 32.7855 53.3619V48.4575Z" fill="white"/>
<path d="M47.5487 55.901C43.4658 55.901 40.2549 53.7848 40.2549 49.0552C40.2549 44.3501 43.4658 42.2344 47.5487 42.2344C53.2747 42.2344 55.0172 46.1671 55.0172 48.109C55.0172 49.6526 54.295 50.2004 52.6523 50.2004H45.3831C45.5073 51.8433 46.4537 52.9137 48.1214 52.9137C49.9886 52.9137 51.0836 51.3204 52.6523 51.3204C53.5486 51.3204 54.2455 52.1918 54.2455 53.0133C54.2455 54.4322 52.5027 55.901 47.5487 55.901ZM50.1876 47.6609C50.1876 45.8687 49.0673 45.2213 47.7981 45.2213C46.6523 45.2213 45.4577 45.8439 45.3831 47.6609H50.1876Z" fill="white"/>
<path d="M66.1699 39.895C66.1699 38.1274 67.0664 37.3311 68.6596 37.3311C70.2528 37.3311 71.149 38.1274 71.149 39.895V53.4126C71.149 55.0558 70.402 55.902 68.859 55.902C67.3896 55.902 66.6182 54.8815 66.6182 53.5623H66.5686C66.1456 55.2051 64.1287 55.902 62.6602 55.902C59.075 55.902 56.835 53.2382 56.835 49.0315C56.835 46.5169 58.2289 42.2354 62.5109 42.2354C64.2034 42.2354 65.3733 43.032 66.1204 44.2264H66.1699V39.895ZM64.2783 46.268C62.5109 46.268 61.9631 47.7119 61.9631 49.2056C61.9631 50.5996 62.4356 52.1681 64.1788 52.1681C65.6473 52.1681 66.2446 50.9235 66.2446 49.0809C66.2446 47.2636 65.3984 46.268 64.2783 46.268Z" fill="white"/>
<path d="M73.7637 44.7726C73.7637 43.0304 74.8343 42.2338 76.3278 42.2338C77.8215 42.2338 78.8919 43.0304 78.8919 44.7726V53.3614C78.8919 55.1038 77.8215 55.9004 76.3278 55.9004C74.8343 55.9004 73.7637 55.1038 73.7637 53.3614V44.7726ZM76.3278 36.458C76.8054 36.4581 77.2722 36.5997 77.6693 36.865C78.0664 37.1304 78.3759 37.5075 78.5586 37.9487C78.7414 38.39 78.7892 38.8755 78.696 39.3439C78.6028 39.8123 78.3728 40.2425 78.0351 40.5802C77.6974 40.9179 77.2672 41.1478 76.7988 41.241C76.3304 41.3342 75.8448 41.2863 75.4036 41.1036C74.9624 40.9208 74.5853 40.6113 74.32 40.2142C74.0547 39.8171 73.913 39.3503 73.913 38.8727C73.9113 38.5551 73.9725 38.2403 74.0933 37.9466C74.214 37.6528 74.3918 37.3859 74.6164 37.1613C74.841 36.9368 75.1079 36.759 75.4016 36.6382C75.6954 36.5175 76.0102 36.4563 76.3278 36.458Z" fill="white"/>
<path d="M90.4188 44.7732C90.4188 43.031 91.4894 42.2344 92.9829 42.2344C94.4765 42.2344 95.547 43.031 95.547 44.7732V53.4615C95.547 55.0547 94.7755 55.901 93.0826 55.901C91.5638 55.901 90.9666 55.0297 90.7924 53.4867H90.7423C89.8962 55.0297 88.4771 55.901 86.5103 55.901C82.9502 55.901 81.5068 53.7104 81.5068 50.8722V44.7732C81.5068 43.031 82.5772 42.2344 84.0709 42.2344C85.5647 42.2344 86.635 43.031 86.635 44.7732V49.6778C86.635 51.0968 87.2574 51.8682 88.5266 51.8682C89.7964 51.8682 90.4188 50.8722 90.4188 49.3294V44.7732Z" fill="white"/>
<path d="M103.912 50.8474L102.393 50.5238C98.6592 49.7272 97.5639 48.3828 97.5639 46.4661C97.5639 44.4743 99.0076 42.2344 104.136 42.2344C107.173 42.2344 110.335 43.0806 110.335 45.072C110.335 45.9685 109.638 46.6653 108.642 46.6653C106.949 46.6653 106.426 45.072 103.986 45.072C103.065 45.072 102.542 45.3957 102.542 45.9931C102.542 46.4912 102.767 46.7401 104.136 47.0383L106.302 47.5115C109.115 48.1339 110.857 49.3042 110.857 51.3952C110.857 53.6609 109.164 55.901 103.787 55.901C100.477 55.901 97.5391 54.9056 97.5391 52.7396C97.5391 51.8934 98.3606 51.1713 99.356 51.1713C100.8 51.1713 101.497 53.063 103.962 53.063C105.057 53.063 105.58 52.5401 105.58 52.0425C105.58 51.5944 105.331 51.1463 103.912 50.8474Z" fill="white"/>
<path d="M112.153 45.2707C111.996 44.8395 111.912 44.3855 111.903 43.927C111.903 42.9804 112.75 42.2341 113.671 42.2341C115.015 42.2341 115.214 42.956 115.463 44.0015L117.38 51.9677H117.43L118.973 44.7235C119.272 43.3044 119.571 42.1837 121.264 42.2341C122.981 42.1837 123.33 43.2792 123.654 44.7235L125.222 51.9677H125.272L127.064 44.0015C127.289 42.956 127.512 42.2341 128.857 42.2341C129.777 42.2341 130.624 42.9804 130.624 43.927C130.615 44.3855 130.531 44.8395 130.375 45.2707L127.712 53.9344C127.189 55.6518 126.79 55.9007 125.346 55.9007C123.828 55.9007 123.455 55.4526 123.081 54.0089L121.288 46.864H121.239L119.447 54.0089C119.073 55.4526 118.7 55.9007 117.181 55.9007C115.737 55.9007 115.339 55.6518 114.816 53.9344L112.153 45.2707Z" fill="white"/>
<path d="M144.467 52.0675C144.467 53.5863 144.84 53.9347 144.84 54.5069C144.84 55.3287 144.069 55.901 143.198 55.901C141.629 55.901 141.106 54.9056 141.057 53.7848C139.638 55.3536 137.994 55.901 136.077 55.901C134.011 55.901 131.97 54.4819 131.97 52.1918C131.97 49.1794 134.261 48.3333 137.048 48.0092L139.264 47.7603C140.135 47.6609 140.832 47.462 140.832 46.416C140.832 45.3705 139.762 44.9225 138.542 44.9225C135.854 44.9225 135.779 46.9142 134.335 46.9142C133.414 46.9142 132.791 46.2669 132.791 45.5203C132.791 44.0762 134.833 42.2344 138.567 42.2344C142.053 42.2344 144.467 43.3543 144.467 45.9685V52.0675ZM140.832 49.4534C140.434 49.827 139.687 49.9515 139.264 50.026L137.945 50.225C136.426 50.4493 135.604 50.9225 135.604 52.0175C135.604 52.8392 136.376 53.511 137.621 53.511C139.612 53.511 140.832 52.2167 140.832 50.8722V49.4534Z" fill="white"/>
<path d="M147.803 43.9273C147.803 42.8317 148.525 42.2344 149.446 42.2344C150.367 42.2344 151.089 42.8317 151.089 43.9273V45.3209H151.139C151.562 43.8025 152.384 42.2344 154.152 42.2344C155.297 42.2344 156.143 42.9806 156.143 44.0018C156.143 45.3462 155.246 45.8187 154.35 45.8187H153.703C152.234 45.8187 151.438 46.8397 151.438 49.8519V54.084C151.438 55.0547 151.04 55.901 149.621 55.901C148.202 55.901 147.803 55.0547 147.803 54.084V43.9273Z" fill="white"/>
<path d="M160.524 49.7524C160.524 51.6688 161.769 53.063 163.885 53.063C166.623 53.063 166.623 51.2709 168.092 51.2709C168.963 51.2709 169.586 52.0175 169.586 52.6901C169.586 54.8804 166.076 55.901 163.885 55.901C158.806 55.901 156.89 52.4656 156.89 49.3042C156.89 45.072 159.454 42.2344 163.76 42.2344C167.943 42.2344 170.332 45.1964 170.332 48.184C170.332 49.4283 169.959 49.7524 168.739 49.7524H160.524ZM166.897 47.6609C166.698 45.9931 165.453 44.7732 163.835 44.7732C162.018 44.7732 160.922 45.8935 160.524 47.6609H166.897Z" fill="white"/>
<path d="M177.578 38.2517C177.727 37.853 177.976 37.2305 178.947 37.2305C179.519 37.2305 180.241 37.7039 180.241 38.5005C180.241 38.7741 180.142 39.0482 180.042 39.3219L174.092 54.9803C173.943 55.3787 173.694 56.0012 172.723 56.0012C172.151 56.0012 171.429 55.5282 171.429 54.7315C171.429 54.4578 171.528 54.1837 171.628 53.9102L177.578 38.2517Z" fill="white"/>
<path d="M190.199 49.0675L182.183 45.5573C181.138 45.1091 181.014 44.5617 181.014 43.9889C181.014 43.1923 181.586 42.6445 182.382 42.6445C182.731 42.6445 183.129 42.6949 183.752 42.9933L193.883 47.6488C194.158 47.7709 194.391 47.97 194.554 48.2218C194.718 48.4736 194.805 48.7674 194.805 49.0677C194.805 49.3679 194.718 49.6617 194.554 49.9136C194.391 50.1654 194.158 50.3644 193.883 50.4866L183.752 55.1418C183.129 55.4407 182.731 55.4905 182.382 55.4905C181.586 55.4905 181.014 54.9424 181.014 54.1457C181.014 53.5735 181.138 53.0256 182.183 52.5775L190.199 49.0675Z" fill="white"/>
</g>
<defs>
<clipPath id="clip0_518_580">
<rect width="194.806" height="53.76" fill="white" transform="translate(0 2.24219)"/>
</clipPath>
</defs>
</svg>
