<svg width="40" height="40" viewBox="0 0 40 40" fill="none" xmlns="http://www.w3.org/2000/svg">
<g clip-path="url(#clip0_736_725)">
<path d="M20 0C8.95469 0 0 8.95469 0 20C0 31.0453 8.95469 40 20 40C31.0453 40 40 31.0453 40 20C40 8.95469 31.0453 0 20 0Z" fill="white"/>
<path d="M22.1873 18.1906L30.7491 8.23828H28.7202L21.286 16.8798L15.3484 8.23828H8.5L17.4789 21.3057L8.5 31.7423H10.529L18.3797 22.6166L24.6503 31.7423H31.4986L22.1868 18.1906H22.1873ZM11.26 9.76568H14.3764L28.7211 30.2844H25.6047L11.26 9.76568Z" fill="#072B4A"/>
</g>
<defs>
<clipPath id="clip0_736_725">
<rect width="40" height="40" fill="white"/>
</clipPath>
</defs>
</svg>
