<svg width="38" height="27" viewBox="0 0 38 27" fill="none" xmlns="http://www.w3.org/2000/svg">
<path d="M36.567 4.53333C36.3597 3.75327 35.9511 3.04134 35.3822 2.46878C34.8133 1.89622 34.104 1.48313 33.3253 1.27083C30.4587 0.5 19.0003 0.5 19.0003 0.5C19.0003 0.5 7.54199 0.5 4.67533 1.27083C3.89661 1.48313 3.1873 1.89622 2.6184 2.46878C2.0495 3.04134 1.64096 3.75327 1.43366 4.53333C0.666992 7.4125 0.666992 13.4167 0.666992 13.4167C0.666992 13.4167 0.666992 19.4208 1.43366 22.3C1.64096 23.0801 2.0495 23.792 2.6184 24.3645C3.1873 24.9371 3.89661 25.3502 4.67533 25.5625C7.54199 26.3333 19.0003 26.3333 19.0003 26.3333C19.0003 26.3333 30.4587 26.3333 33.3253 25.5625C34.104 25.3502 34.8133 24.9371 35.3822 24.3645C35.9511 23.792 36.3597 23.0801 36.567 22.3C37.3337 19.4208 37.3337 13.4167 37.3337 13.4167C37.3337 13.4167 37.3337 7.4125 36.567 4.53333Z" fill="#FF0302"/>
<path d="M15.2503 18.8688V7.96463L24.8337 13.4167L15.2503 18.8688Z" fill="#FEFEFE"/>
</svg>
